# xmcd
#
# Track frame offsets:
#	150
#	19271
#	38448
#	55094
#	68681
#	87859
#	108064
#	126487
#	143988
#	160986
#
# Disc length: 2396 seconds
# Revision: 0
# Processed by: cddbd v1.5.2PL0 Copyright (c) Steve Scherf et al.
# Submitted via: dBpowerAMP V12.0
#
DISCID=7d095a0a
DTITLE=The LYNNeS - Heartbreak Song For The Radio
DYEAR=2018
DGENRE=Americana
TTITLE0=Cold Front
TTITLE1=Cost So Much
TTITLE2=Heartbreak Song For The Radio
TTITLE3=Recipe For Disaster
TTITLE4=Don't Look Down
TTITLE5=Dark Waltz
TTITLE6=Halfway To Happy
TTITLE7=Blue Tattoo
TTITLE8=Blame It On The Devil
TTITLE9=Heavy Lifting
EXTD=
EXTT0=
EXTT1=
EXTT2=
EXTT3=
EXTT4=
EXTT5=
EXTT6=
EXTT7=
EXTT8=
EXTT9=
PLAYORDER=
